<?xml version="1.0" standalone="no"?>
<!DOCTYPE svg PUBLIC "-//W3C//DTD SVG 1.0//EN" "http://www.w3.org/TR/2001/REC-SVG-20010904/DTD/svg10.dtd">
<svg xmlns="http://www.w3.org/2000/svg" xmlns:xlink="http://www.w3.org/1999/xlink" id="body_1" width="39" height="39">

<g transform="matrix(0.15234375 0 0 0.15234375 0 0)">
	<g>
		<g transform="matrix(8.53333 0 0 8.53333 0 0)">
            <path d="M15 3C 8.373 3 3 8.373 3 15C 3 20.623001 6.8719997 25.328 12.092 26.630001C 12.036 26.468 12 26.28 12 26.047L12 26.047L12 23.996C 11.5130005 23.996 10.6970005 23.996 10.492 23.996C 9.671 23.996 8.941 23.643 8.587 22.987C 8.194 22.258 8.125999 21.143 7.152 20.460999C 6.863 20.234 7.083 19.974998 7.416 20.009998C 8.031 20.183998 8.541 20.605999 9.021 21.231998C 9.499 21.859 9.724 22.000998 10.617 22.000998C 11.049999 22.000998 11.698 21.975998 12.308 21.879997C 12.636 21.046997 13.202999 20.279997 13.896 19.917997C 9.9 19.506998 7.993 17.518997 7.993 14.819998C 7.993 13.657998 8.488 12.533998 9.329 11.586998C 9.053 10.646998 8.706 8.729998 9.435 7.999998C 11.233001 7.999998 12.320001 9.165998 12.581 9.480998C 13.477 9.173998 14.461 8.999998 15.495001 8.999998C 16.531 8.999998 17.519001 9.173998 18.417 9.482998C 18.675 9.169998 19.763 7.999998 21.565 7.999998C 22.297 8.730998 21.946001 10.655998 21.667 11.593998C 22.503 12.538998 22.994999 13.659998 22.994999 14.819998C 22.994999 17.516998 21.091 19.503998 17.100998 19.916998C 18.198997 20.489998 18.999998 22.099998 18.999998 23.312998L18.999998 23.312998L18.999998 26.046997C 18.999998 26.150997 18.976997 26.225998 18.964998 26.314997C 23.640999 24.675997 26.999998 20.235996 26.999998 14.999997C 26.999998 8.372997 21.626999 2.9999971 14.999998 2.9999971L14.999998 2.9999971L15 3z" stroke="none" fill="#FFFFFF" fill-rule="nonzero" />
		</g>
	</g>
</g>
</svg>