<?xml version="1.0" standalone="no"?>
<!DOCTYPE svg PUBLIC "-//W3C//DTD SVG 20010904//EN"
 "http://www.w3.org/TR/2001/REC-SVG-20010904/DTD/svg10.dtd">
<svg version="1.0" xmlns="http://www.w3.org/2000/svg"
 width="1366.000000pt" height="768.000000pt" viewBox="0 0 1366.000000 768.000000"
 preserveAspectRatio="xMidYMid meet">

<g transform="translate(0.000000,768.000000) scale(0.100000,-0.100000)"
fill="#000000" stroke="none">
<path d="M0 3840 l0 -3840 6830 0 6830 0 0 3840 0 3840 -6830 0 -6830 0 0
-3840z m10565 2146 c19 -8 46 -32 62 -57 26 -40 28 -48 28 -158 0 -202 -71
-429 -226 -731 -110 -212 -234 -397 -329 -490 -42 -41 -96 -102 -120 -135 -24
-33 -106 -122 -182 -198 -83 -82 -145 -152 -155 -174 -28 -69 -176 -543 -171
-549 2 -1 36 47 77 107 74 110 307 400 432 540 157 175 278 205 355 89 24 -36
26 -47 22 -103 -5 -51 -20 -93 -93 -247 -118 -249 -170 -381 -154 -390 8 -6 5
-32 -15 -101 -37 -126 -43 -181 -23 -197 13 -11 21 -11 44 2 41 21 245 234
391 409 119 142 162 176 162 129 0 -30 -66 -156 -138 -264 -38 -56 -106 -161
-152 -233 -215 -339 -311 -386 -483 -234 -70 61 -101 132 -101 229 0 113 67
335 149 500 35 70 70 134 77 141 15 15 111 250 105 256 -8 7 -136 -137 -236
-265 -56 -73 -124 -151 -150 -174 -26 -24 -59 -63 -73 -88 -15 -25 -71 -108
-126 -184 -55 -77 -114 -167 -131 -202 -36 -72 -65 -89 -121 -70 -61 20 -75
60 -74 209 1 70 0 127 -1 127 -11 0 -171 -212 -265 -350 -188 -275 -283 -385
-369 -430 -73 -37 -135 -24 -198 42 -71 74 -99 202 -84 378 5 58 8 106 7 107
-1 2 -43 -34 -92 -78 -108 -98 -205 -172 -260 -199 -104 -51 -220 0 -264 117
-29 78 -27 223 4 320 4 14 -26 -10 -77 -61 -161 -159 -302 -191 -389 -88 -56
67 -61 153 -14 290 14 39 23 72 22 72 -2 0 -53 -62 -114 -139 -116 -145 -266
-294 -317 -316 -16 -7 -55 -19 -86 -25 -48 -11 -60 -10 -88 5 -39 20 -66 76
-76 157 l-7 57 -92 -126 c-167 -231 -296 -351 -482 -449 -25 -13 -37 -14 -72
-5 -86 24 -152 132 -152 249 0 61 32 193 56 229 8 12 21 44 30 70 9 26 47 113
85 192 38 79 69 145 69 146 0 1 -27 -1 -59 -3 -39 -3 -76 1 -107 12 -26 9 -51
13 -55 9 -3 -5 -62 -87 -130 -183 -145 -205 -238 -305 -292 -315 -39 -8 -113
12 -160 43 -30 21 -147 170 -147 190 0 21 -14 13 -42 -26 -48 -68 -142 -165
-187 -194 -74 -47 -140 -32 -243 54 -69 57 -83 109 -68 255 6 59 16 128 21
152 14 61 67 187 86 203 14 11 53 89 53 105 0 3 -30 -34 -66 -83 -37 -49 -86
-109 -110 -134 -38 -40 -163 -227 -225 -338 -13 -23 -29 -40 -36 -37 -7 2 -15
0 -18 -5 -11 -18 -62 -11 -90 12 -17 13 -30 18 -32 12 -9 -27 -121 -197 -178
-269 -87 -111 -142 -163 -200 -191 -60 -29 -78 -29 -131 -5 -150 68 -195 303
-113 584 11 38 19 75 17 84 -4 19 -61 -60 -136 -187 -52 -88 -204 -268 -267
-316 -27 -20 -49 -28 -97 -31 -76 -5 -109 8 -142 55 -40 59 -56 117 -56 208 0
183 89 446 210 624 47 69 75 94 175 159 69 45 86 51 131 51 89 0 164 -73 205
-199 l23 -70 38 44 c21 24 64 56 94 71 49 24 59 26 94 15 21 -6 52 -27 69 -46
48 -55 46 -84 -19 -219 -52 -111 -95 -231 -86 -244 3 -5 -6 -65 -20 -133 -15
-78 -24 -148 -22 -189 3 -58 5 -65 25 -68 41 -6 129 91 282 314 61 89 62 92
71 181 8 71 24 132 78 284 38 107 76 208 84 224 9 17 24 56 33 89 15 50 22 60
51 72 40 17 57 17 105 4 46 -13 89 -55 89 -87 0 -15 -18 -44 -51 -78 -30 -32
-58 -75 -70 -106 -11 -29 -29 -64 -38 -78 -24 -34 -46 -113 -66 -240 -13 -82
-14 -105 -4 -115 9 -8 10 -8 5 2 -4 6 -3 12 2 12 10 0 92 117 92 132 0 11 147
204 280 367 94 114 141 151 198 151 62 0 122 -82 122 -166 0 -64 -26 -113
-110 -209 -51 -58 -89 -117 -140 -216 -38 -75 -70 -141 -70 -145 0 -5 18 24
39 63 21 40 44 80 51 88 22 26 22 9 1 -26 -11 -18 -18 -36 -16 -40 3 -3 -6
-38 -19 -77 -27 -77 -43 -182 -30 -182 25 0 118 68 247 177 l143 123 18 77
c48 204 95 273 186 273 30 0 70 -9 104 -24 54 -24 86 -59 66 -71 -6 -4 -8 -10
-5 -15 3 -5 -13 -29 -35 -55 -22 -25 -41 -52 -42 -58 -3 -25 -4 -33 -12 -55
-4 -12 -12 -19 -18 -16 -6 4 -8 2 -4 -4 3 -6 -5 -36 -19 -67 -35 -80 -65 -181
-65 -220 0 -37 21 -65 50 -65 43 0 282 190 285 226 2 24 25 60 102 156 53 67
53 68 38 97 -48 93 39 260 152 290 44 12 121 -6 137 -32 12 -19 -5 -93 -21
-90 -13 3 -73 -107 -73 -135 0 -36 46 -55 143 -58 110 -5 162 -18 194 -50 35
-35 28 -71 -45 -229 -80 -172 -202 -491 -202 -527 0 -35 21 -37 70 -7 48 29
140 109 140 121 0 6 44 67 98 137 236 303 309 406 327 461 21 65 70 166 85
175 6 4 31 48 57 98 78 156 121 197 208 197 50 0 89 -16 118 -48 17 -19 17
-23 2 -67 -18 -54 -63 -135 -75 -135 -9 0 -80 -133 -80 -151 0 -24 -93 -248
-101 -244 -7 5 -30 -57 -42 -113 -8 -34 12 -82 33 -82 32 0 113 64 178 140 82
96 219 278 267 355 44 70 108 140 147 161 41 21 120 18 152 -7 35 -28 34 -76
-4 -157 -17 -35 -28 -68 -25 -72 3 -5 -4 -35 -16 -67 -52 -140 -70 -202 -76
-255 -8 -74 5 -76 85 -9 63 53 230 229 249 264 69 126 102 175 150 227 144
156 252 154 410 -8 35 -36 65 -63 67 -61 2 2 16 45 31 94 54 178 236 646 275
705 6 8 28 53 50 98 51 107 115 197 185 259 77 69 136 96 215 101 89 5 143
-11 190 -58 79 -79 75 -224 -13 -405 -78 -160 -271 -455 -337 -515 -22 -19
-105 -130 -112 -150 -3 -8 -58 -82 -121 -164 -89 -115 -120 -162 -136 -211
-22 -69 -76 -400 -87 -535 -9 -122 16 -201 59 -184 27 10 146 158 317 394 89
124 200 270 245 325 81 99 82 101 99 190 30 153 104 446 150 591 66 212 119
339 236 569 59 116 112 227 119 248 7 20 17 37 22 37 5 0 9 9 9 20 0 30 21 67
132 234 115 173 223 320 280 382 115 124 249 179 343 140z m-4991 -1369 c13
-9 34 -32 46 -52 34 -55 23 -98 -40 -157 -27 -25 -50 -53 -50 -60 0 -8 -10
-23 -21 -34 -12 -10 -25 -28 -30 -39 -5 -11 -21 -36 -36 -55 -23 -29 -19 -27
25 14 29 26 56 46 58 43 7 -6 -46 -87 -57 -88 -5 -1 -13 -2 -17 -3 -5 0 -24
-19 -42 -40 -35 -40 -93 -71 -111 -61 -14 9 -39 74 -39 102 0 15 17 44 41 71
28 33 50 73 70 132 33 95 36 126 14 150 -14 15 -13 20 6 43 11 15 17 27 13 27
-20 0 18 23 48 29 39 9 89 -1 122 -22z"/>
<path d="M10452 5783 c-16 -21 -59 -89 -95 -150 -119 -201 -467 -878 -467
-908 0 -8 -31 -98 -70 -200 -38 -102 -70 -187 -70 -190 0 -8 123 129 177 199
26 33 41 56 33 51 -7 -5 1 10 19 33 18 22 40 43 49 47 8 3 12 8 9 11 -3 4 4
15 16 26 12 11 15 17 7 13 -8 -4 -4 3 10 15 14 12 18 19 10 15 -8 -4 -4 3 10
15 14 12 19 19 12 15 -7 -4 16 38 52 92 233 357 415 797 382 927 -10 40 -48
35 -84 -11z"/>
<path d="M10268 5612 c-319 -588 -488 -951 -564 -1206 -39 -130 -27 -120 26
21 27 72 57 148 68 170 11 21 39 85 63 143 23 58 109 236 190 395 145 286 263
534 257 540 -2 2 -20 -26 -40 -63z"/>
<path d="M9165 4909 c-113 -100 -328 -590 -459 -1049 l-15 -55 34 40 c18 21
33 42 32 46 -1 3 43 68 98 143 134 183 284 418 345 543 77 155 99 294 54 344
-24 27 -48 24 -89 -12z"/>
<path d="M8621 4249 c-6 -18 -9 -34 -7 -36 2 -2 9 10 15 28 6 18 9 34 7 36 -2
2 -9 -10 -15 -28z"/>
<path d="M8576 4011 c-9 -16 -16 -40 -16 -53 1 -15 7 -7 20 26 22 57 19 73 -4
27z"/>
<path d="M3297 3991 c-35 -23 -55 -51 -88 -123 -14 -32 -29 -55 -33 -51 -4 4
-4 0 -1 -9 4 -9 0 -18 -9 -21 -9 -4 -16 -12 -16 -19 0 -9 3 -9 11 2 9 12 10
12 5 -3 -3 -10 -6 -21 -6 -23 0 -3 -4 -3 -9 0 -17 11 -105 -237 -95 -267 4
-13 2 -17 -5 -12 -8 5 -10 -1 -5 -21 4 -15 3 -25 -2 -21 -5 3 -10 -5 -10 -16
-1 -12 -5 -52 -9 -88 -16 -144 46 -93 267 216 55 77 111 158 124 180 l23 41
-25 89 c-13 50 -22 98 -20 109 13 50 -44 72 -97 37z m-156 -288 c-12 -20 -14
-14 -5 12 4 9 9 14 11 11 3 -2 0 -13 -6 -23z m-22 -62 c-6 -18 -13 -30 -15
-28 -2 2 1 18 7 36 6 18 13 30 15 28 2 -2 -1 -18 -7 -36z"/>
<path d="M8168 3818 c-43 -47 -160 -285 -207 -424 -28 -83 -43 -147 -48 -212
-8 -88 -8 -95 11 -108 14 -10 22 -10 27 -3 4 7 12 8 18 5 6 -4 11 -2 11 3 0 6
5 11 11 11 16 0 52 30 152 126 48 47 91 82 96 80 4 -3 25 14 47 37 21 23 27
31 12 18 -16 -14 -28 -20 -28 -14 0 5 9 18 21 29 34 30 45 62 64 174 23 138
22 152 -15 211 -66 102 -120 123 -172 67z m102 -492 c0 -2 -8 -10 -17 -17 -16
-13 -17 -12 -4 4 13 16 21 21 21 13z"/>
<path d="M7485 3739 c-14 -30 -25 -65 -24 -79 0 -28 -1 -30 38 69 28 72 18 78
-14 10z"/>
</g>
</svg>
